<svg width="132" height="162" viewBox="0 0 132 162" fill="none" xmlns="http://www.w3.org/2000/svg">
<path d="M64.4 161.2C51.6 161.2 39.4667 160.133 28 158C16.6667 155.733 7.93333 153.2 1.79999 150.4V110.8H45.8C45.8 114.933 46.7333 117.933 48.6 119.8C50.4667 121.667 53.8667 122.6 58.8 122.6C62.9333 122.6 65.8667 122 67.6 120.8C69.4667 119.467 70.4 117.533 70.4 115C70.4 112.867 69.5333 111.067 67.8 109.6C66.0667 108 63.0667 106.4 58.8 104.8L41.6 98.8C26.8 93.2 16.1333 86.6 9.59999 79C3.19999 71.4 -6.02752e-06 61.1333 -6.02752e-06 48.2C-6.02752e-06 32.4667 5.13333 20.5333 15.4 12.4C25.8 4.13333 43.0667 -1.90735e-06 67.2 -1.90735e-06C78.8 -1.90735e-06 89.6667 1.2 99.8 3.6C110.067 5.86667 118.333 8.93334 124.6 12.8V48.6H84.6C84.6 41.9333 80.4667 38.6 72.2 38.6C68.2 38.6 65.3333 39.1333 63.6 40.2C62 41.1333 61.2 42.8667 61.2 45.4C61.2 47.6667 62.1333 49.4667 64 50.8C66 52.1333 69.2 53.5333 73.6 55L91 61C105.133 65.8 115.4 72.0667 121.8 79.8C128.333 87.4 131.6 97.4 131.6 109.8C131.6 126.733 125.867 139.533 114.4 148.2C103.067 156.867 86.4 161.2 64.4 161.2Z" fill="#E50914"/>
</svg>
