<svg width="91" height="26" viewBox="0 0 91 26" fill="none" xmlns="http://www.w3.org/2000/svg">
<path d="M5.832 25.92C3.912 25.92 2.46 25.38 1.476 24.3C0.492 23.196 2.45869e-07 21.624 2.45869e-07 19.584V18.144H3.744V19.872C3.744 21.504 4.428 22.32 5.796 22.32C6.468 22.32 6.972 22.128 7.308 21.744C7.668 21.336 7.848 20.688 7.848 19.8C7.848 18.744 7.608 17.82 7.128 17.028C6.648 16.212 5.76 15.24 4.464 14.112C2.832 12.672 1.692 11.376 1.044 10.224C0.396 9.048 0.0720002 7.728 0.0720002 6.264C0.0720002 4.272 0.576 2.736 1.584 1.656C2.592 0.552 4.056 0 5.976 0C7.872 0 9.3 0.552 10.26 1.656C11.244 2.736 11.736 4.296 11.736 6.336V7.38H7.992V6.084C7.992 5.22 7.824 4.596 7.488 4.212C7.152 3.804 6.66 3.6 6.012 3.6C4.692 3.6 4.032 4.404 4.032 6.012C4.032 6.924 4.272 7.776 4.752 8.568C5.256 9.36 6.156 10.32 7.452 11.448C9.108 12.888 10.248 14.196 10.872 15.372C11.496 16.548 11.808 17.928 11.808 19.512C11.808 21.576 11.292 23.16 10.26 24.264C9.252 25.368 7.776 25.92 5.832 25.92ZM14.1785 0.36H18.1385V10.62H22.3865V0.36H26.3465V25.56H22.3865V14.22H18.1385V25.56H14.1785V0.36ZM35.1197 25.92C33.1757 25.92 31.6877 25.368 30.6557 24.264C29.6237 23.16 29.1077 21.6 29.1077 19.584V6.336C29.1077 4.32 29.6237 2.76 30.6557 1.656C31.6877 0.552 33.1757 0 35.1197 0C37.0637 0 38.5517 0.552 39.5837 1.656C40.6157 2.76 41.1317 4.32 41.1317 6.336V19.584C41.1317 21.6 40.6157 23.16 39.5837 24.264C38.5517 25.368 37.0637 25.92 35.1197 25.92ZM35.1197 22.32C36.4877 22.32 37.1717 21.492 37.1717 19.836V6.084C37.1717 4.428 36.4877 3.6 35.1197 3.6C33.7517 3.6 33.0677 4.428 33.0677 6.084V19.836C33.0677 21.492 33.7517 22.32 35.1197 22.32ZM43.9098 0.36H49.7418C51.7098 0.36 53.1858 0.888 54.1698 1.944C55.1538 3 55.6458 4.548 55.6458 6.588V9.072C55.6458 11.112 55.1538 12.66 54.1698 13.716C53.1858 14.772 51.7098 15.3 49.7418 15.3H47.8698V25.56H43.9098V0.36ZM49.7418 11.7C50.3898 11.7 50.8698 11.52 51.1818 11.16C51.5178 10.8 51.6858 10.188 51.6858 9.324V6.336C51.6858 5.472 51.5178 4.86 51.1818 4.5C50.8698 4.14 50.3898 3.96 49.7418 3.96H47.8698V11.7H49.7418ZM57.8965 0.36H61.8565V25.56H57.8965V0.36ZM68.4143 12.672L64.0583 0.36H68.2343L70.8983 8.496H70.9703L73.7063 0.36H77.4503L73.0943 12.672L77.6663 25.56H73.4903L70.6103 16.776H70.5383L67.5863 25.56H63.8423L68.4143 12.672ZM84.8088 25.92C82.8648 25.92 81.3768 25.368 80.3448 24.264C79.3128 23.16 78.7968 21.6 78.7968 19.584V6.336C78.7968 4.32 79.3128 2.76 80.3448 1.656C81.3768 0.552 82.8648 0 84.8088 0C86.7528 0 88.2408 0.552 89.2728 1.656C90.3048 2.76 90.8208 4.32 90.8208 6.336V19.584C90.8208 21.6 90.3048 23.16 89.2728 24.264C88.2408 25.368 86.7528 25.92 84.8088 25.92ZM84.8088 22.32C86.1768 22.32 86.8608 21.492 86.8608 19.836V6.084C86.8608 4.428 86.1768 3.6 84.8088 3.6C83.4408 3.6 82.7568 4.428 82.7568 6.084V19.836C82.7568 21.492 83.4408 22.32 84.8088 22.32Z" fill="white"/>
</svg>
